<?xml version="1.0" encoding="utf-8"?>
<!-- Generator: Adobe Illustrator 27.5.0, SVG Export Plug-In . SVG Version: 6.00 Build 0)  -->
<svg version="1.1" id="Layer_1" xmlns="http://www.w3.org/2000/svg" xmlns:xlink="http://www.w3.org/1999/xlink" x="0px" y="0px"
	 viewBox="0 0 258.4 212.9" style="enable-background:new 0 0 258.4 212.9;" xml:space="preserve">
<style type="text/css">
	.st0{fill:#FFFFFF;stroke:#231F20;stroke-miterlimit:10;}
	.st1{font-family:'ArialMT';}
	.st2{font-size:24px;}
	.st3{fill:#231F20;}
	.st4{fill:none;stroke:#231F20;stroke-width:0.5;stroke-miterlimit:10;}
</style>
<path class="st0" d="M116.4,72.7H201c0,46.4-38.2,84.7-84.7,84.7s-84.6-38.2-84.6-84.7c0-0.1,0-0.2,0-0.4
	C31.7,72.3,116.4,72.7,116.4,72.7z"/>
<text transform="matrix(1 0 0 1 22.8989 188.4607)" class="st1 st2">Vietnamese Cuisine</text>
<path class="st3" d="M59,135.9c3.4-2.9,8.4-1.4,11.8,0.6c3.9,2.3,6.8,5.9,10.3,8.6c3.3,2.6,7.1,4.5,11.4,4.2
	c3.5-0.2,6.8-1.7,9.8-3.5c6-3.6,11.9-9.7,19.3-10.1c8.8-0.4,15.5,7.2,23.9,8.9c10.7,2.1,19.7-5.7,26.9-12.6c1.2-1.1-0.6-2.9-1.8-1.8
	c-6.4,6.1-14.6,13.8-24.3,12c-8.4-1.6-14.9-8.8-23.7-9c-7.6-0.2-13.8,5.2-19.8,9.2c-2.9,1.9-6.2,3.9-9.7,4.3
	c-4.3,0.5-8.1-1.5-11.3-4.3c-3.8-3.2-7-7-11.6-9.1c-4.3-2-9.2-2.5-13,0.7C56,135.2,57.8,136.9,59,135.9L59,135.9L59,135.9z"/>
<path class="st3" d="M49.5,118.7c1.2-3.7,4.5-6.2,8.1-7.3c4.2-1.3,8.5-0.9,12.6,0.4c9.7,3,18.3,10.1,28.8,9.8
	c4.8-0.1,8.8-2.1,12.9-4.4c3.4-1.9,7.2-4.4,11.3-4c4.6,0.4,7.3,5.1,11.3,6.9s9,1.6,13.4,0.8c6-1.1,12-2.9,17.9-4.4
	c6.3-1.6,12.6-3.2,18.8-4.8c1.6-0.4,0.9-2.8-0.7-2.4c-11.3,2.9-22.6,5.9-33.9,8.6c-4.6,1.1-9.9,2.1-14.4,0.1
	c-4.1-1.8-6.6-6.2-11.2-7.1c-4.2-0.8-8.2,1-11.7,3c-4.1,2.2-8.1,4.9-12.9,5.2c-10.8,0.7-19.7-7-29.7-9.9c-4.7-1.4-9.6-1.6-14.2,0.1
	c-4.1,1.5-7.5,4.5-8.9,8.7C46.6,119.5,49,120.2,49.5,118.7L49.5,118.7L49.5,118.7z"/>
<path class="st3" d="M38.7,87.4c-0.8,6.2,4.8,10.8,10.5,11.7c7.5,1.1,14.1-4,20.5-7.1c3.3-1.6,7.1-2.9,10.9-2.6s6.2,2.5,8.7,4.9
	c2.2,2.1,4.5,4.4,7.6,5.2c2.4,0.6,4.8,0.2,7.1-0.7c4.9-2.1,8.5-6.2,13.2-8.6c2.2-1.1,4.7-1.6,7.1-0.8c2.8,0.9,5,3,7.2,4.9
	s4.6,3.7,7.4,4.6s5.7,0.4,8.4-0.6c5.6-2.1,10.5-6.9,16.6-7.3c7.2-0.5,12.5,5.6,18.9,7.8c4.5,1.6,11.1,1.7,14.5-2.3
	c0.8-1,1.4-2.1,1.6-3.3c0.4-1.6-2.1-2.2-2.4-0.7c-1.2,5.2-7.9,5.4-12.1,4.2c-3-0.9-5.7-2.8-8.4-4.3c-2.9-1.7-5.9-3.3-9.2-3.8
	c-6.2-0.9-11.3,2.6-16.5,5.4c-2.4,1.3-5,2.6-7.8,2.8s-5.4-1.2-7.7-2.9c-4.2-3.2-8.2-7.8-14-7.3c-5.1,0.4-9.1,4-13,6.9
	s-8.5,5.4-13.2,2.3c-2.5-1.7-4.4-4.2-6.8-6.1c-2.6-2-5.8-3-9.1-2.8c-7.5,0.3-13.4,5-20,7.9c-3,1.3-6.6,2.4-9.9,1.7
	c-2.7-0.6-5.4-2.1-6.9-4.6c-0.7-1.2-1-2.5-0.8-3.8C41.3,86.5,38.9,85.8,38.7,87.4L38.7,87.4L38.7,87.4z"/>
<g>
	<path class="st3" d="M184.5,49.4c17.5-12.3,36.3-22.8,56.1-31c5.6-2.3,11.2-4.4,16.9-6.4c1.5-0.5,0.9-2.9-0.7-2.4
		c-20.4,7-40,16.3-58.3,27.5c-5.2,3.2-10.3,6.5-15.2,10.1C181.9,48.1,183.2,50.3,184.5,49.4L184.5,49.4L184.5,49.4z"/>
	<path class="st3" d="M172.1,39.4c19.2-12.8,39.9-23.2,61.6-31c6.2-2.2,12.5-4.2,18.8-6c1.6-0.4,0.9-2.8-0.7-2.4
		c-22.4,6.3-44,15.3-64.2,26.8c-5.7,3.3-11.3,6.7-16.8,10.4C169.5,38.2,170.8,40.3,172.1,39.4L172.1,39.4L172.1,39.4z"/>
</g>
<path class="st4" d="M201,73.7v4v-8C201,69.8,201,73.7,201,73.7z"/>
<rect x="-237" y="256" style="fill:none;" width="207" height="5"/>
</svg>
