<?xml version="1.0" standalone="no"?>
<!DOCTYPE svg PUBLIC "-//W3C//DTD SVG 20010904//EN"
 "http://www.w3.org/TR/2001/REC-SVG-20010904/DTD/svg10.dtd">
<svg version="1.0" xmlns="http://www.w3.org/2000/svg"
 width="294.000000pt" height="294.000000pt" viewBox="0 0 294.000000 294.000000"
 preserveAspectRatio="xMidYMid meet">
<metadata>
Created by potrace 1.14, written by Peter Selinger 2001-2017
</metadata>
<g transform="translate(0.000000,294.000000) scale(0.100000,-0.100000)"
fill="#000000" stroke="none">
<path d="M734 2217 c-11 -6 -178 -169 -371 -363 -341 -340 -353 -353 -353
-390 0 -37 13 -51 360 -398 354 -355 360 -361 400 -361 39 0 46 7 193 153 84
83 155 152 159 152 3 0 74 -67 156 -150 83 -82 152 -150 154 -150 2 -1 19 -3
38 -6 34 -5 40 0 193 152 l159 157 154 -154 c148 -147 155 -154 194 -154 40 0
46 6 400 361 348 347 360 361 360 398 0 37 -12 50 -359 397 -197 197 -362 359
-367 360 -5 0 -18 2 -28 4 -32 6 -55 -12 -187 -144 -70 -69 -136 -135 -148
-145 l-22 -20 -153 153 c-155 155 -183 173 -228 150 -9 -5 -84 -76 -166 -159
l-150 -150 -155 155 c-86 85 -159 156 -164 156 -36 6 -53 5 -69 -4z"/>
</g>
</svg>
