<?xml version="1.0" encoding="UTF-8"?>
<svg id="Layer_4" data-name="Layer 4" xmlns="http://www.w3.org/2000/svg" viewBox="0 0 980 651.35">
  <defs>
    <style>
      .cls-1 {
        fill: #fff;
        stroke: #fff;
        stroke-miterlimit: 10;
      }

      .cls-2 {
        fill: #919191;
      }
    </style>
  </defs>
  <path class="cls-2" d="m322.35,477.18l39.07-39.07-.58-.58c5.87,1.72,12.08,2.67,18.51,2.67,36.24,0,65.61-29.38,65.61-65.61,0-3.66-.31-7.24-.89-10.74l-28.12,28.12c-.26.3-.52.6-.81.88l-18.73,18.73c-3.86,3.86-9.49,5.37-14.76,3.96l-25.59-6.86c-5.27-1.41-9.39-5.53-10.81-10.81l-6.86-25.59c-1.41-5.27.09-10.9,3.96-14.76l18.73-18.73c.28-.28.58-.55.88-.81l28.12-28.12c-3.5-.58-7.08-.89-10.74-.89-36.24,0-65.61,29.38-65.61,65.61,0,6.43.94,12.64,2.67,18.51l-.58-.58-82.76,82.89c4.17,1.14,8.55,1.77,13.08,1.77h76.2Z"/>
  <g>
    <g>
      <path class="cls-2" d="m773.45,258.86c-5.12-5.12-13.43-5.12-18.56,0s-5.12,13.43,0,18.56l-5.9,5.9-21.93-21.93-172.33,172.33v43.46h308.57c27.24,0,49.32-22.08,49.32-49.32V119.7l-139.16,139.16Z"/>
      <path class="cls-2" d="m904.89,22.83c-8.76-13.72-24.11-22.83-41.59-22.83H246.16c-27.24,0-49.32,22.08-49.32,49.32v184.5h357.89v183.03l163.9-163.9-21.93-21.93,5.9-5.9c5.12,5.12,13.43,5.12,18.56,0,5.12-5.12,5.12-13.43,0-18.56L904.89,22.83Z"/>
    </g>
    <path class="cls-2" d="m474,514.45l-8.44,3.37-.1-.1c-.72.26-1.69,0-2.43-.74s-1-1.7-.74-2.43l-.1-.1,3.37-8.44,28.84-28.84h-172.04l-114.63,114.63-.02-.02c-5.83,5.84-13.89,9.45-22.79,9.45-17.79,0-32.21-14.42-32.21-32.21,0-10.02,4.57-18.97,11.75-24.88l68.63-68.75c-20.89-5.73-36.24-24.84-36.24-47.55v-194.05h-119.3v298.24L0,651.35h632.27l-77.54-119.3v-54.88h-43.46l-37.27,37.27Z"/>
    <polygon class="cls-2" points="511.27 477.18 554.73 433.72 554.73 416.85 494.4 477.18 511.27 477.18"/>
    <path class="cls-2" d="m964.94,15.07c-14.44-14.44-32.95-19.35-41.33-10.97l-18.72,18.72c4.88,7.65,7.73,16.74,7.73,26.49v70.38l63.29-63.29c8.39-8.39,3.48-26.89-10.97-41.33Z"/>
  </g>
  <g>
    <path class="cls-1" d="m242.42,103.15l5.69-53.5h8.42l11.88,34.78,2.59,10.01,2.59-10.01,11.16-34.78h7.99l6.91,53.5h-5.98l-3.74-33.26-1.58-15.84-4.32,15.84-11.38,33.77h-3.24l-11.95-33.77-4.75-15.84-1.37,15.84-3.17,33.26h-5.76Z"/>
    <path class="cls-1" d="m312.26,103.15h-6.26l20.66-54.07h5.83l20.23,54.07h-6.34l-15.34-43.56-1.44-4.25-1.44,4.25-15.91,43.56Zm3.02-14.69l1.08-4.46h25.34l1.15,4.46h-27.58Z"/>
    <path class="cls-1" d="m361.58,103.15v-53.5h5.98v53.5h-5.98Z"/>
    <path class="cls-1" d="m382.1,103.15v-53.5h5.54l24.62,37.22,7.2,12.6h-2.09l-.5-14.83v-34.99h5.4v53.5h-5.4l-24.19-36.36-7.99-13.61h2.38l.5,15.84v34.13h-5.47Z"/>
    <path class="cls-1" d="m448.48,103.15v-48.89h-17.28v-4.61h40.82v4.61h-17.5v48.89h-6.05Z"/>
    <path class="cls-1" d="m480.81,103.15v-53.5h30.17v4.61h-24.26v18.94h17.71v4.61h-17.71v20.66h26.78v4.68h-32.69Z"/>
    <path class="cls-1" d="m522.57,103.15v-53.5h5.54l24.62,37.22,7.2,12.6h-2.09l-.5-14.83v-34.99h5.4v53.5h-5.4l-24.19-36.36-7.99-13.61h2.38l.5,15.84v34.13h-5.47Z"/>
    <path class="cls-1" d="m576.28,103.15v-53.5h30.17v4.61h-24.26v18.94h17.71v4.61h-17.71v20.66h26.78v4.68h-32.69Z"/>
    <path class="cls-1" d="m618.04,103.15v-53.5h5.54l24.62,37.22,7.2,12.6h-2.09l-.5-14.83v-34.99h5.4v53.5h-5.4l-24.19-36.36-7.99-13.61h2.38l.5,15.84v34.13h-5.47Z"/>
    <path class="cls-1" d="m668.73,76.66c0-4.44.64-8.37,1.93-11.79s3.05-6.3,5.29-8.64c2.24-2.34,4.85-4.12,7.81-5.33,2.96-1.21,6.11-1.82,9.45-1.82,2.71,0,4.97.14,6.77.41,1.8.28,3.27.58,4.41.9,1.14.32,2.07.56,2.79.7l-.86,5.33c-.53-.19-1.28-.49-2.25-.9-.97-.41-2.3-.78-4-1.12-1.69-.34-3.88-.5-6.57-.5-3.7,0-6.96.87-9.79,2.61-2.83,1.74-5.05,4.27-6.66,7.6-1.61,3.32-2.41,7.36-2.41,12.11,0,4.34.73,8.23,2.2,11.66,1.46,3.43,3.58,6.14,6.35,8.12,2.77,1.98,6.11,2.97,10.03,2.97,2.21,0,4.24-.17,6.1-.52,1.86-.35,3.46-.77,4.79-1.26,1.33-.49,2.31-.95,2.93-1.39l.07,5.11c-1.06.34-2.19.73-3.4,1.17-1.21.44-2.68.83-4.39,1.15-1.72.32-3.85.49-6.39.49-4.9,0-9.16-1.13-12.78-3.4-3.62-2.27-6.43-5.43-8.42-9.49-1.99-4.06-2.99-8.78-2.99-14.18Z"/>
    <path class="cls-1" d="m718.41,103.15v-53.5h30.17v4.61h-24.26v18.94h17.71v4.61h-17.71v20.66h26.78v4.68h-32.69Z"/>
    <path class="cls-1" d="m244.58,189.55h-6.26l20.66-54.07h5.83l20.23,54.07h-6.34l-15.34-43.56-1.44-4.25-1.44,4.25-15.91,43.56Zm3.02-14.69l1.08-4.46h25.34l1.15,4.46h-27.58Z"/>
    <path class="cls-1" d="m306.07,190.13c-2.33,0-4.52-.17-6.59-.52-2.06-.35-3.85-.77-5.36-1.26-1.51-.49-2.59-.95-3.24-1.39l1.44-4.9c.96.58,2.17,1.12,3.62,1.62,1.45.5,3.02.91,4.72,1.22,1.69.31,3.38.47,5.06.47,3.72,0,6.67-.71,8.84-2.14,2.17-1.43,3.26-3.62,3.26-6.57,0-2.04-.54-3.73-1.62-5.08-1.08-1.34-2.58-2.54-4.5-3.58-1.92-1.04-4.13-2.14-6.62-3.29-2.33-1.06-4.57-2.33-6.71-3.82-2.15-1.49-3.91-3.23-5.27-5.24-1.37-2-2.05-4.31-2.05-6.93,0-2.47.51-4.55,1.53-6.25,1.02-1.69,2.38-3.05,4.07-4.09,1.69-1.03,3.55-1.78,5.58-2.23,2.03-.46,4.06-.68,6.1-.68,3.38,0,6.11.32,8.17.95,2.06.64,3.56,1.28,4.5,1.93l-1.22,4.68c-1.3-.84-2.84-1.53-4.64-2.07s-4.07-.81-6.8-.81c-1.9,0-3.73.28-5.51.83-1.78.55-3.23,1.4-4.37,2.56-1.14,1.15-1.71,2.62-1.71,4.39,0,1.99.46,3.67,1.39,5.02.92,1.36,2.27,2.58,4.05,3.67,1.78,1.09,3.92,2.25,6.44,3.47,1.78.84,3.55,1.75,5.33,2.72,1.78.97,3.4,2.08,4.86,3.31,1.46,1.24,2.64,2.66,3.53,4.27.89,1.61,1.33,3.48,1.33,5.62,0,3.14-.74,5.76-2.23,7.85-1.49,2.09-3.55,3.65-6.19,4.7-2.64,1.04-5.69,1.57-9.14,1.57Z"/>
    <path class="cls-1" d="m347.18,190.13c-2.33,0-4.52-.17-6.59-.52-2.06-.35-3.85-.77-5.36-1.26-1.51-.49-2.59-.95-3.24-1.39l1.44-4.9c.96.58,2.17,1.12,3.62,1.62,1.45.5,3.02.91,4.72,1.22,1.69.31,3.38.47,5.06.47,3.72,0,6.67-.71,8.84-2.14,2.17-1.43,3.26-3.62,3.26-6.57,0-2.04-.54-3.73-1.62-5.08-1.08-1.34-2.58-2.54-4.5-3.58-1.92-1.04-4.13-2.14-6.62-3.29-2.33-1.06-4.57-2.33-6.71-3.82-2.15-1.49-3.91-3.23-5.27-5.24-1.37-2-2.05-4.31-2.05-6.93,0-2.47.51-4.55,1.53-6.25,1.02-1.69,2.38-3.05,4.07-4.09,1.69-1.03,3.55-1.78,5.58-2.23,2.03-.46,4.06-.68,6.1-.68,3.38,0,6.11.32,8.17.95,2.06.64,3.56,1.28,4.5,1.93l-1.22,4.68c-1.3-.84-2.84-1.53-4.64-2.07s-4.07-.81-6.8-.81c-1.9,0-3.73.28-5.51.83-1.78.55-3.23,1.4-4.37,2.56-1.14,1.15-1.71,2.62-1.71,4.39,0,1.99.46,3.67,1.39,5.02.92,1.36,2.27,2.58,4.05,3.67,1.78,1.09,3.92,2.25,6.44,3.47,1.78.84,3.55,1.75,5.33,2.72,1.78.97,3.4,2.08,4.86,3.31,1.46,1.24,2.64,2.66,3.53,4.27.89,1.61,1.33,3.48,1.33,5.62,0,3.14-.74,5.76-2.23,7.85-1.49,2.09-3.55,3.65-6.19,4.7-2.64,1.04-5.69,1.57-9.14,1.57Z"/>
    <path class="cls-1" d="m376.12,189.55v-53.5h5.98v53.5h-5.98Z"/>
    <path class="cls-1" d="m409.82,190.13c-2.33,0-4.52-.17-6.59-.52-2.06-.35-3.85-.77-5.36-1.26-1.51-.49-2.59-.95-3.24-1.39l1.44-4.9c.96.58,2.17,1.12,3.62,1.62,1.45.5,3.02.91,4.72,1.22,1.69.31,3.38.47,5.06.47,3.72,0,6.67-.71,8.84-2.14,2.17-1.43,3.26-3.62,3.26-6.57,0-2.04-.54-3.73-1.62-5.08-1.08-1.34-2.58-2.54-4.5-3.58-1.92-1.04-4.13-2.14-6.62-3.29-2.33-1.06-4.57-2.33-6.71-3.82-2.15-1.49-3.91-3.23-5.27-5.24-1.37-2-2.05-4.31-2.05-6.93,0-2.47.51-4.55,1.53-6.25,1.02-1.69,2.38-3.05,4.07-4.09,1.69-1.03,3.55-1.78,5.58-2.23,2.03-.46,4.06-.68,6.1-.68,3.38,0,6.11.32,8.17.95,2.06.64,3.56,1.28,4.5,1.93l-1.22,4.68c-1.3-.84-2.84-1.53-4.64-2.07s-4.07-.81-6.8-.81c-1.9,0-3.73.28-5.51.83-1.78.55-3.23,1.4-4.37,2.56-1.14,1.15-1.71,2.62-1.71,4.39,0,1.99.46,3.67,1.39,5.02.92,1.36,2.27,2.58,4.05,3.67,1.78,1.09,3.92,2.25,6.44,3.47,1.78.84,3.55,1.75,5.33,2.72,1.78.97,3.4,2.08,4.86,3.31,1.46,1.24,2.64,2.66,3.53,4.27.89,1.61,1.33,3.48,1.33,5.62,0,3.14-.74,5.76-2.23,7.85-1.49,2.09-3.55,3.65-6.19,4.7-2.64,1.04-5.69,1.57-9.14,1.57Z"/>
    <path class="cls-1" d="m450.43,189.55v-48.89h-17.28v-4.61h40.82v4.61h-17.5v48.89h-6.05Z"/>
  </g>
</svg>