<?xml version="1.0" encoding="UTF-8"?>
<svg id="Layer_6" data-name="Layer 6" xmlns="http://www.w3.org/2000/svg" viewBox="0 0 980 651.35">
  <defs>
    <style>
      .cls-1 {
        fill: #919191;
      }
    </style>
  </defs>
  <path class="cls-1" d="m328.97,544.41l-.02-.02c-7.04,7.05-16.78,11.42-27.54,11.42-21.49,0-38.91-17.42-38.91-38.91,0-12.1,5.53-22.91,14.19-30.05l64.24-64.35c-7.84-8.44-12.63-19.74-12.63-32.17V129.95h-145.78v360.29l-93.67,144.11h763.81l-93.67-144.11v-52.6h-323.23l-106.78,106.78Z"/>
  <path class="cls-1" d="m844.49,3.85h-468.89c-26.12,0-47.3,21.18-47.3,47.3v78.8h430.68v307.68h85.51c26.12,0,47.3-21.18,47.3-47.3V51.15c0-26.12-21.18-47.3-47.3-47.3Z"/>
  <path class="cls-1" d="m375.6,437.63h60.15l78.9-78.9-.7-.7c7.1,2.08,14.6,3.22,22.37,3.22,43.78,0,79.26-35.49,79.26-79.26,0-4.42-.38-8.75-1.07-12.97l-33.97,33.97c-.31.36-.63.72-.97,1.06l-22.63,22.63c-4.66,4.66-11.46,6.49-17.83,4.78l-30.91-8.28c-6.37-1.71-11.35-6.68-13.06-13.06l-8.28-30.91c-1.71-6.37.11-13.17,4.78-17.83l22.63-22.63c.34-.34.7-.66,1.06-.97l33.97-33.97c-4.22-.7-8.55-1.07-12.97-1.07-43.78,0-79.26,35.49-79.26,79.26,0,7.77,1.14,15.27,3.22,22.37l-.7-.7-118.65,118.84c8.64,9.3,20.97,15.13,34.67,15.13Z"/>
</svg>