<?xml version="1.0" standalone="no"?>
<!DOCTYPE svg PUBLIC "-//W3C//DTD SVG 20010904//EN"
 "http://www.w3.org/TR/2001/REC-SVG-20010904/DTD/svg10.dtd">
<svg version="1.0" xmlns="http://www.w3.org/2000/svg"
 width="337.000000pt" height="337.000000pt" viewBox="0 0 337.000000 337.000000"
 preserveAspectRatio="xMidYMid meet">
<metadata>
Created by potrace 1.14, written by Peter Selinger 2001-2017
</metadata>
<g transform="translate(0.000000,337.000000) scale(0.100000,-0.100000)"
fill="#000000" stroke="none">
<path d="M862 3360 c-106 -22 -208 -95 -240 -170 -19 -44 -18 -115 1 -160 32
-76 138 -150 242 -169 28 -5 80 -8 117 -7 l67 3 135 -151 c74 -83 171 -188
216 -234 45 -46 80 -87 78 -92 -2 -5 -46 -53 -98 -107 -93 -96 -201 -217 -288
-321 l-44 -51 -62 3 c-301 18 -490 -233 -308 -410 73 -71 208 -112 323 -99
l55 7 40 -49 c21 -26 48 -57 59 -69 11 -11 40 -43 64 -70 23 -27 98 -107 165
-177 66 -70 121 -132 121 -136 0 -5 -56 -67 -125 -138 -69 -70 -156 -163 -194
-205 -56 -63 -72 -76 -86 -68 -29 16 -151 26 -214 18 -110 -14 -217 -81 -258
-161 -41 -80 -16 -193 55 -253 175 -148 494 -113 590 65 29 52 35 118 17 165
-5 14 -6 26 -2 26 4 0 25 17 47 36 22 20 76 68 119 108 87 78 127 114 198 183
l46 46 25 -24 c52 -51 240 -224 256 -235 9 -7 38 -32 64 -57 45 -42 48 -47 36
-68 -20 -39 -16 -128 9 -175 28 -55 92 -108 161 -136 81 -32 241 -32 325 1
110 44 186 140 186 236 -1 94 -95 192 -221 230 -60 18 -186 21 -238 5 -33 -9
-37 -8 -69 28 -83 92 -178 194 -262 282 l-90 94 83 86 c86 87 169 176 207 220
12 14 36 41 53 60 18 19 48 56 69 81 l36 45 65 -2 c120 -5 224 32 297 105 74
74 89 154 45 240 -39 78 -113 129 -222 155 -50 11 -168 14 -198 4 -6 -2 -48
40 -94 92 -46 52 -147 162 -225 244 -77 81 -140 150 -139 153 1 2 46 50 100
107 120 125 237 254 293 322 40 50 43 51 77 43 61 -13 166 -4 239 22 148 52
228 187 180 303 -94 226 -526 245 -652 30 -39 -66 -40 -130 -4 -198 l28 -55
-91 -78 c-51 -42 -141 -123 -202 -178 -60 -55 -121 -110 -134 -122 l-24 -21
-46 43 c-83 79 -134 125 -264 237 l-128 111 20 21 c51 54 65 150 32 221 -19
42 -81 104 -128 128 -70 36 -210 54 -291 37z m934 -1276 c66 -61 142 -131 169
-154 28 -24 52 -46 55 -49 3 -4 26 -24 52 -45 l48 -38 -24 -42 c-48 -83 -42
-160 17 -238 l33 -43 -104 -87 c-57 -48 -144 -125 -194 -170 -49 -46 -104 -95
-121 -111 l-31 -27 -51 48 c-120 115 -187 176 -297 270 -102 88 -115 102 -101
114 26 21 53 90 53 136 0 46 -21 105 -47 135 -19 21 -32 7 141 162 49 44 130
119 180 167 50 48 94 86 97 85 4 -1 60 -52 125 -113z"/>
</g>
</svg>
