<svg version="1.1" id="Layer_1" xmlns="http://www.w3.org/2000/svg" xmlns:xlink="http://www.w3.org/1999/xlink" x="0px" y="0px"
	 width="100%" viewBox="0 0 294 250" enable-background="new 0 0 294 250" xml:space="preserve">
<path fill="#000000" opacity="1.000000" stroke="none" 
	d="
M0.999999,122.000000 
	C1.000000,81.699615 1.000000,41.399227 1.000000,1.049421 
	C98.886971,1.049421 196.773972,1.049421 295.000000,1.049421 
	C295.000000,41.020256 295.000000,81.041473 294.769592,121.864388 
	C289.779358,118.030708 284.970734,113.444244 280.268372,108.751320 
	C261.775635,90.295723 243.326401,71.796532 224.837265,53.337322 
	C220.411743,48.918953 216.008865,48.570648 211.946091,52.601028 
	C202.507111,61.964714 193.218979,71.480453 183.560059,80.834274 
	C174.297653,71.791748 165.350204,62.844200 156.390228,53.909199 
	C150.765198,48.299866 146.272400,48.290386 140.692139,53.810570 
	C131.467148,62.936241 122.229164,72.048782 112.689880,81.017685 
	C103.447250,71.940376 94.514145,63.009483 85.574547,54.085098 
	C79.853699,48.373989 76.179436,48.341232 70.530411,53.987850 
	C48.663715,75.845222 26.816732,97.722351 4.912893,119.542427 
	C3.848655,120.602592 2.315039,121.191589 0.999999,122.000000 
z"/>
<path fill="#000000" opacity="1.000000" stroke="none" 
	d="
M295.000000,131.000000 
	C295.000000,170.967209 295.000000,210.934418 295.000000,250.950806 
	C197.113159,250.950806 99.226273,250.950806 1.000000,250.950806 
	C1.000000,211.313080 1.000000,171.625198 1.246193,131.140961 
	C5.340541,134.409790 9.101988,138.561371 13.051583,142.525497 
	C32.054623,161.598480 51.098618,180.630707 70.151672,199.653778 
	C74.464073,203.959412 80.769104,204.597824 84.701309,200.725311 
	C94.278328,191.293671 103.631294,181.634537 113.394020,172.147644 
	C122.760040,181.271774 131.805756,190.316086 140.853317,199.358521 
	C146.081161,204.583435 150.834763,204.605438 156.086960,199.422150 
	C165.064636,190.562286 174.037689,181.697723 183.321075,172.980499 
	C192.443680,181.950226 201.241699,190.790833 210.078476,199.592545 
	C214.973633,204.468262 220.891083,204.579773 225.683884,199.796555 
	C247.463333,178.060623 269.199951,156.281769 290.970032,134.536438 
	C292.231873,133.276062 293.653015,132.175140 295.000000,131.000000 
z"/>
<path fill="#F1592A" opacity="1.000000" stroke="none" 
	d="
M113.074486,172.067017 
	C103.631294,181.634537 94.278328,191.293671 84.701309,200.725311 
	C80.769104,204.597824 74.464073,203.959412 70.151672,199.653778 
	C51.098618,180.630707 32.054623,161.598480 13.051583,142.525497 
	C9.101988,138.561371 5.340541,134.409790 1.246193,130.672302 
	C1.000000,128.299988 1.000000,125.599968 0.999999,122.449982 
	C2.315039,121.191589 3.848655,120.602592 4.912893,119.542427 
	C26.816732,97.722351 48.663715,75.845222 70.530411,53.987850 
	C76.179436,48.341232 79.853699,48.373989 85.574547,54.085098 
	C94.514145,63.009483 103.447250,71.940376 112.510208,81.288879 
	C110.701843,83.984543 108.925514,86.421837 106.803085,88.506805 
	C98.029945,97.125130 88.871635,105.369019 80.384674,114.256432 
	C70.142189,124.982193 67.905396,126.885139 80.149681,138.695267 
	C91.393501,149.540405 102.120049,160.921860 113.074486,172.067017 
z"/>
<path fill="#FCB040" opacity="1.000000" stroke="none" 
	d="
M295.000000,130.550018 
	C293.653015,132.175140 292.231873,133.276062 290.970032,134.536438 
	C269.199951,156.281769 247.463333,178.060623 225.683884,199.796555 
	C220.891083,204.579773 214.973633,204.468262 210.078476,199.592545 
	C201.241699,190.790833 192.443680,181.950226 183.397186,172.657181 
	C184.423752,170.662140 185.570251,169.024124 186.959213,167.627136 
	C198.113800,156.408264 209.327957,145.248627 220.494232,134.041306 
	C225.573425,128.943451 225.559326,124.072014 220.461792,118.957436 
	C209.528778,107.987862 198.538300,97.075378 187.645721,86.065933 
	C186.167923,84.572281 185.117859,82.655441 183.869720,80.934555 
	C193.218979,71.480453 202.507111,61.964714 211.946091,52.601028 
	C216.008865,48.570648 220.411743,48.918953 224.837265,53.337322 
	C243.326401,71.796532 261.775635,90.295723 280.268372,108.751320 
	C284.970734,113.444244 289.779358,118.030708 294.769592,122.333046 
	C295.000000,124.700012 295.000000,127.400024 295.000000,130.550018 
z"/>
<path fill="#F7941D" opacity="1.000000" stroke="none" 
	d="
M183.560059,80.834274 
	C185.117859,82.655441 186.167923,84.572281 187.645721,86.065933 
	C198.538300,97.075378 209.528778,107.987862 220.461792,118.957436 
	C225.559326,124.072014 225.573425,128.943451 220.494232,134.041306 
	C209.327957,145.248627 198.113800,156.408264 186.959213,167.627136 
	C185.570251,169.024124 184.423752,170.662140 183.088791,172.511810 
	C174.037689,181.697723 165.064636,190.562286 156.086960,199.422150 
	C150.834763,204.605438 146.081161,204.583435 140.853317,199.358521 
	C131.805756,190.316086 122.760040,181.271774 113.394020,172.147644 
	C102.120049,160.921860 91.393501,149.540405 80.149681,138.695267 
	C67.905396,126.885139 70.142189,124.982193 80.384674,114.256432 
	C88.871635,105.369019 98.029945,97.125130 106.803085,88.506805 
	C108.925514,86.421837 110.701843,83.984543 112.816986,81.438057 
	C122.229164,72.048782 131.467148,62.936241 140.692139,53.810570 
	C146.272400,48.290386 150.765198,48.299866 156.390228,53.909199 
	C165.350204,62.844200 174.297653,71.791748 183.560059,80.834274 
z"/>
</svg>