<?xml version="1.0" standalone="no"?>
<!DOCTYPE svg PUBLIC "-//W3C//DTD SVG 20010904//EN"
 "http://www.w3.org/TR/2001/REC-SVG-20010904/DTD/svg10.dtd">
<svg version="1.0" xmlns="http://www.w3.org/2000/svg"
 width="259.000000pt" height="259.000000pt" viewBox="0 0 259.000000 259.000000"
 preserveAspectRatio="xMidYMid meet">
<metadata>
Created by potrace 1.14, written by Peter Selinger 2001-2017
</metadata>
<g transform="translate(0.000000,259.000000) scale(0.100000,-0.100000)"
fill="#000000" stroke="none">
<path d="M2385 2321 c-171 -58 -195 -68 -365 -153 -149 -74 -301 -166 -308
-185 -6 -19 22 -16 49 5 123 95 451 250 692 326 80 26 99 37 80 49 -5 3 -71
-16 -148 -42z"/>
<path d="M2435 2217 c-160 -65 -376 -177 -507 -263 -91 -60 -115 -84 -86 -84
6 0 60 31 118 70 159 103 374 211 558 278 39 15 72 33 72 39 0 20 -17 16 -155
-40z"/>
<path d="M320 1598 c0 -170 88 -385 216 -527 24 -26 41 -51 37 -54 -3 -4 3
-10 13 -13 10 -4 48 -28 84 -54 150 -109 314 -162 500 -162 133 0 234 21 348
73 123 55 266 172 343 279 93 129 159 320 159 458 l0 47 -850 0 -850 0 0 -47z"/>
<path d="M35 638 c21 -63 39 -104 48 -106 13 -3 30 29 42 78 1 3 4 12 8 20 28
73 35 110 22 110 -9 0 -25 -34 -42 -90 l-29 -90 -17 63 c-27 91 -38 117 -52
117 -9 0 -3 -30 20 -102z"/>
<path d="M190 725 c0 -8 7 -15 15 -15 8 0 15 7 15 15 0 8 -7 15 -15 15 -8 0
-15 -7 -15 -15z"/>
<path d="M1578 711 c-28 -25 -32 -35 -32 -78 0 -52 10 -69 51 -91 31 -17 93
-15 93 2 0 10 -10 13 -36 11 -28 -3 -42 2 -61 21 -21 22 -25 32 -20 66 7 53
27 71 79 74 56 3 56 3 38 14 -30 19 -79 11 -112 -19z"/>
<path d="M1890 726 c0 -9 7 -16 16 -16 9 0 14 5 12 12 -6 18 -28 21 -28 4z"/>
<path d="M2080 726 c0 -9 7 -16 16 -16 9 0 14 5 12 12 -6 18 -28 21 -28 4z"/>
<path d="M423 703 c-4 -10 -11 -22 -17 -26 -8 -6 -7 -10 2 -14 7 -3 12 -24 12
-57 0 -29 5 -57 12 -64 15 -15 48 -16 48 -2 0 6 -6 10 -14 10 -15 0 -23 38
-18 83 2 15 9 27 18 27 8 0 14 5 14 10 0 6 -7 10 -15 10 -8 0 -15 9 -15 20 0
25 -18 26 -27 3z"/>
<path d="M192 605 c0 -57 4 -75 14 -75 11 0 14 18 14 75 0 58 -3 75 -14 75
-11 0 -14 -16 -14 -75z"/>
<path d="M276 659 c-28 -22 -33 -53 -14 -94 12 -27 41 -39 79 -33 37 5 32 23
-7 23 -27 0 -40 6 -51 23 -15 22 -15 22 41 22 62 0 71 14 40 58 -19 28 -53 28
-88 1z m74 -19 c10 -18 8 -20 -30 -20 -43 0 -43 0 -34 24 9 23 51 20 64 -4z"/>
<path d="M512 605 c0 -57 4 -75 14 -75 10 0 14 15 14 54 0 60 19 88 48 69 12
-7 18 -27 20 -67 2 -37 7 -56 16 -56 18 0 18 99 0 128 -16 24 -53 29 -72 10
-9 -9 -12 -9 -12 0 0 7 -6 12 -14 12 -11 0 -14 -17 -14 -75z"/>
<path d="M685 670 c-21 -9 -17 -11 30 -13 44 -3 46 -33 2 -41 -40 -7 -56 -23
-51 -50 5 -33 39 -45 75 -26 13 7 19 7 19 0 0 -5 5 -10 10 -10 6 0 10 26 10
58 0 81 -33 109 -95 82z m75 -76 c0 -18 -24 -44 -41 -44 -24 0 -37 29 -18 41
16 10 59 12 59 3z"/>
<path d="M820 605 c0 -60 3 -75 15 -75 11 0 15 13 15 53 0 60 10 80 36 75 16
-3 20 -14 22 -66 2 -46 7 -62 17 -62 12 0 15 14 15 59 0 52 3 61 21 66 33 11
42 -10 41 -92 0 -22 4 -33 14 -33 10 0 14 15 14 58 0 47 -4 63 -21 77 -16 16
-25 17 -47 9 -19 -8 -33 -7 -45 0 -12 8 -25 7 -47 -1 -16 -6 -30 -7 -30 -2 0
5 -4 9 -10 9 -6 0 -10 -32 -10 -75z"/>
<path d="M1082 657 c-51 -54 -6 -136 69 -125 37 5 32 23 -7 23 -27 0 -40 6
-51 23 -15 22 -15 22 41 22 47 0 56 3 56 18 0 57 -68 82 -108 39z m78 -17 c10
-19 8 -20 -36 -20 -46 0 -47 0 -29 20 10 11 26 20 36 20 10 0 23 -9 29 -20z"/>
<path d="M1226 659 c-17 -25 -6 -50 28 -65 32 -14 27 -39 -9 -39 -40 -1 -39
-19 2 -23 23 -2 35 3 46 19 20 27 12 46 -25 65 -35 18 -32 38 5 42 33 4 26 22
-8 22 -13 0 -31 -10 -39 -21z"/>
<path d="M1352 660 c-51 -48 -14 -130 58 -130 50 0 53 18 4 22 -25 2 -42 10
-52 26 -14 22 -14 22 42 22 49 0 56 2 56 20 0 27 -35 60 -63 60 -13 0 -33 -9
-45 -20z m78 -20 c10 -19 8 -20 -35 -20 -50 0 -52 2 -29 24 21 22 51 20 64 -4z"/>
<path d="M1724 620 c2 -33 9 -66 16 -75 14 -17 51 -20 67 -4 8 8 13 8 17 0 17
-27 26 -5 26 64 0 61 -3 75 -16 75 -9 0 -14 -8 -13 -17 5 -57 -2 -93 -22 -103
-33 -18 -49 4 -49 66 0 41 -4 54 -15 54 -12 0 -14 -12 -11 -60z"/>
<path d="M1890 605 c0 -60 3 -75 15 -75 12 0 15 15 15 75 0 60 -3 75 -15 75
-12 0 -15 -15 -15 -75z"/>
<path d="M1968 663 c-20 -25 -12 -50 23 -65 36 -16 34 -43 -3 -43 -37 -1 -46
-13 -15 -20 73 -19 101 47 35 81 -33 17 -33 39 2 39 13 0 25 6 28 13 6 19 -53
15 -70 -5z"/>
<path d="M2083 605 c-2 -60 1 -75 13 -75 11 0 14 16 14 75 0 55 -4 75 -13 75
-9 0 -13 -21 -14 -75z"/>
<path d="M2153 605 c-1 -59 2 -75 13 -75 10 0 14 14 14 55 0 45 4 56 21 65 33
18 49 -4 49 -66 0 -40 4 -54 14 -54 19 0 17 110 -3 133 -16 20 -52 22 -69 5
-9 -9 -12 -9 -12 0 0 7 -6 12 -13 12 -10 0 -14 -20 -14 -75z"/>
<path d="M2342 673 c-19 -8 -40 -55 -36 -83 8 -48 73 -77 114 -50 16 11 9 13
-31 10 -25 -1 -59 22 -59 40 0 5 24 10 53 12 49 3 52 4 49 28 -6 40 -48 60
-90 43z m56 -25 c21 -21 13 -28 -28 -28 -38 0 -40 2 -30 20 12 22 40 26 58 8z"/>
</g>
</svg>
