<?xml version="1.0" standalone="no"?>
<!DOCTYPE svg PUBLIC "-//W3C//DTD SVG 20010904//EN"
 "http://www.w3.org/TR/2001/REC-SVG-20010904/DTD/svg10.dtd">
<svg version="1.0" xmlns="http://www.w3.org/2000/svg"
 width="294.000000pt" height="294.000000pt" viewBox="0 0 294.000000 294.000000"
 preserveAspectRatio="xMidYMid meet">
<metadata>
Created by potrace 1.14, written by Peter Selinger 2001-2017
</metadata>
<g transform="translate(0.000000,294.000000) scale(0.100000,-0.100000)"
fill="#000000" stroke="none">
<path d="M735 2708 c-11 -6 -179 -170 -372 -364 -340 -340 -353 -354 -353
-391 0 -36 13 -50 363 -400 335 -336 365 -363 396 -363 31 0 50 16 191 155 86
85 159 155 162 155 3 0 71 -65 149 -144 79 -79 154 -148 166 -155 49 -25 69
-12 230 148 l155 154 152 -152 c129 -129 157 -152 190 -158 l38 -6 364 364
c352 353 364 366 364 403 0 37 -12 50 -357 395 -370 370 -388 385 -438 359
-11 -6 -75 -65 -141 -132 -67 -67 -133 -132 -148 -146 l-27 -24 -152 152
c-157 156 -184 174 -229 151 -9 -5 -84 -77 -166 -159 l-150 -150 -143 143
c-79 78 -151 148 -161 155 -24 19 -60 23 -83 10z"/>
<path d="M1381 961 c-57 -21 -132 -94 -160 -154 -21 -47 -28 -122 -17 -175 10
-44 51 -114 85 -144 149 -131 371 -85 454 92 29 63 29 168 -2 232 -30 61 -84
116 -140 141 -60 27 -161 31 -220 8z m193 -115 c72 -54 95 -148 57 -231 -67
-148 -253 -133 -305 23 -28 83 0 164 72 212 58 38 123 37 176 -4z"/>
<path d="M484 703 l1 -268 155 0 c172 0 196 7 236 68 41 63 38 133 -7 191 -17
22 -19 29 -8 42 21 26 16 115 -10 157 -38 61 -86 77 -238 77 l-130 0 1 -267z
m258 150 c22 -20 23 -51 2 -81 -13 -19 -24 -22 -80 -22 -44 0 -64 4 -65 13 -1
15 -1 89 0 100 1 4 29 7 63 7 43 0 67 -5 80 -17z m28 -223 c11 -11 20 -29 20
-40 0 -42 -34 -60 -115 -60 -53 0 -75 4 -76 13 0 6 -1 33 -2 60 l-2 47 78 0
c64 0 80 -3 97 -20z"/>
<path d="M2032 700 l0 -270 59 0 59 0 0 111 0 110 48 -58 c26 -32 65 -82 87
-110 l39 -53 73 0 c40 0 73 2 73 4 0 2 -25 35 -55 73 -31 37 -61 75 -68 83 -7
9 -29 36 -49 62 -38 46 -45 63 -30 70 4 2 29 31 55 65 26 34 53 68 60 75 6 7
29 34 50 61 l38 47 -70 0 -70 0 -38 -47 c-21 -27 -43 -53 -48 -59 -6 -6 -28
-34 -50 -63 l-40 -52 -3 110 -3 111 -58 0 -59 0 0 -270z"/>
<path d="M1009 532 c-31 -26 -31 -78 0 -104 45 -36 98 -14 108 45 10 62 -57
99 -108 59z"/>
<path d="M1829 532 c-47 -39 -16 -122 45 -122 30 0 66 40 66 72 0 29 -41 68
-70 68 -10 0 -28 -8 -41 -18z"/>
</g>
</svg>
