<?xml version="1.0" standalone="no"?>
<!DOCTYPE svg PUBLIC "-//W3C//DTD SVG 20010904//EN"
 "http://www.w3.org/TR/2001/REC-SVG-20010904/DTD/svg10.dtd">
<svg version="1.0" xmlns="http://www.w3.org/2000/svg"
 width="374.000000pt" height="374.000000pt" viewBox="0 0 374.000000 374.000000"
 preserveAspectRatio="xMidYMid meet">
<metadata>
Created by potrace 1.14, written by Peter Selinger 2001-2017
</metadata>
<g transform="translate(0.000000,374.000000) scale(0.100000,-0.100000)"
fill="#000000" stroke="none">
<path d="M1727 3644 c-1 -1 -42 -5 -92 -8 -539 -41 -1022 -395 -1245 -915 -43
-98 -97 -282 -105 -353 -3 -23 -9 -76 -13 -116 -29 -256 23 -556 138 -807 163
-353 476 -645 839 -782 83 -31 248 -71 331 -80 83 -10 276 -10 360 0 112 12
284 58 395 106 503 217 866 718 912 1261 27 315 -22 583 -157 855 -235 473
-683 783 -1200 830 -72 7 -160 11 -163 9z"/>
<path d="M559 448 c0 -49 0 -299 1 -310 0 -5 10 -8 23 -8 l23 0 0 150 c-1 83
0 150 0 150 1 0 11 -30 23 -67 12 -38 25 -75 27 -83 3 -8 5 -17 5 -20 1 -3 5
-11 11 -17 6 -7 8 -13 5 -13 -3 0 3 -21 12 -47 12 -34 23 -49 37 -51 23 -3 31
13 84 183 17 55 33 105 35 110 2 6 4 -59 4 -142 l1 -153 24 0 24 0 -1 180 -1
180 -36 0 -37 0 -29 -92 c-15 -51 -28 -96 -29 -100 0 -3 -3 -10 -7 -14 -5 -4
-8 -13 -8 -20 0 -7 -5 -25 -11 -41 -11 -26 -15 -19 -58 117 l-47 145 -37 3
-37 3 -1 -43z"/>
<path d="M2040 470 c0 -18 7 -20 60 -20 l59 0 0 -122 c0 -210 -2 -198 24 -198
l23 0 0 158 0 157 54 3 c51 3 75 16 64 34 -3 4 -68 8 -145 8 -132 0 -139 -1
-139 -20z"/>
<path d="M1019 385 c-78 -42 -77 -210 2 -250 117 -61 222 75 159 207 -24 50
-107 73 -161 43z m110 -49 c24 -25 30 -70 17 -120 -18 -71 -102 -76 -134 -8
-7 15 -8 38 -3 94 2 26 41 58 71 58 15 0 36 -10 49 -24z"/>
<path d="M1335 388 c-11 -6 -23 -16 -27 -22 -5 -7 -8 -4 -8 7 0 11 -8 17 -23
17 -22 0 -22 -2 -22 -130 -1 -129 0 -130 22 -130 22 0 23 3 23 93 0 85 2 96
23 115 29 28 73 29 87 3 5 -11 10 -63 10 -115 0 -88 2 -96 19 -96 26 0 28 11
26 124 -2 95 -4 101 -29 123 -29 25 -69 29 -101 11z"/>
<path d="M1588 389 c-60 -22 -88 -123 -55 -200 25 -61 122 -90 177 -52 29 20
40 33 40 51 0 18 -37 15 -48 -5 -6 -11 -24 -16 -53 -17 -38 -1 -45 3 -66 33
-12 18 -20 37 -17 42 3 5 48 9 101 9 l96 0 -7 40 c-8 53 -24 77 -62 95 -36 17
-67 18 -106 4z m99 -51 c40 -38 30 -48 -47 -48 -77 0 -89 12 -48 50 28 26 66
26 95 -2z"/>
<path d="M2436 379 c-21 -17 -26 -18 -26 -5 0 10 -9 16 -23 16 -23 0 -23 -1
-23 -130 1 -128 1 -130 23 -130 22 0 23 3 23 99 0 92 2 101 22 115 12 9 33 16
45 16 16 0 23 6 23 20 0 26 -30 26 -64 -1z"/>
<path d="M2588 389 c-61 -23 -89 -127 -53 -202 36 -76 160 -90 207 -23 26 37
-9 48 -49 16 -48 -38 -111 -14 -126 48 -5 22 -4 22 94 22 l99 0 0 26 c0 89
-84 145 -172 113z m102 -51 c36 -39 27 -48 -50 -48 -77 0 -86 9 -50 48 12 13
33 22 50 22 17 0 38 -9 50 -22z"/>
<path d="M2868 389 c-61 -23 -88 -129 -52 -204 17 -36 65 -65 109 -65 40 0 91
27 103 55 11 24 10 25 -20 25 -17 0 -28 -3 -25 -7 11 -11 -27 -32 -59 -33 -36
0 -74 35 -74 68 0 21 4 22 95 22 l95 0 0 26 c0 88 -86 144 -172 113z m93 -42
c9 -7 19 -22 23 -35 7 -21 5 -22 -63 -22 -59 0 -71 3 -71 16 0 41 75 69 111
41z"/>
<path d="M1790 380 c0 -6 4 -18 9 -28 19 -34 81 -207 81 -225 0 -27 -30 -67
-50 -67 -24 0 -34 -29 -14 -37 9 -3 28 -2 43 3 22 8 35 31 87 164 83 210 81
200 50 200 -14 0 -26 -6 -26 -12 0 -11 -29 -96 -59 -173 -6 -15 -16 3 -42 83
-29 90 -36 102 -56 102 -13 0 -23 -5 -23 -10z"/>
</g>
</svg>
